<?xml version="1.0" encoding="UTF-8" standalone="no"?>
<svg
   xmlns="http://www.w3.org/2000/svg"
   viewBox="0 0 365.19034 329.33799"
   id="svg2"
   version="1.1">
  <metadata
     id="metadata8">
    <rdf:RDF>
      <cc:Work
         rdf:about="">
        <dc:format>image/svg+xml</dc:format>
        <dc:type
           rdf:resource="http://purl.org/dc/dcmitype/StillImage" />
        <dc:title></dc:title>
      </cc:Work>
    </rdf:RDF>
  </metadata>
  <defs
     id="defs6" />
  <path
     id="path3682"
     d="m 235.44305,329.12467 c -0.13203,-0.3441 1.15321,-1.80016 4.19768,-4.75559 2.41338,-2.34281 5.5484,-5.69968 6.9667,-7.45968 7.48624,-9.28985 13.13405,-20.63606 15.84902,-31.84 1.8666,-7.70304 2.13044,-10.1904 2.12142,-20 -0.007,-7.9398 -0.0928,-9.43366 -0.75059,-13.12 -2.69619,-15.10941 -8.42477,-27.67234 -17.80187,-39.04 -3.04472,-3.69105 -8.51879,-9.09918 -12.01364,-11.86891 l -2.41434,-1.91343 0.88772,-1.97176 c 3.90753,-8.67911 3.68079,-22.14707 -0.51209,-30.41816 -4.22037,-8.32532 -10.83191,-8.17723 -15.01167,0.33622 -2.28333,4.65076 -3.27866,10.45004 -2.99807,17.46824 0.1684,4.21191 0.13885,4.57824 -0.3568,4.42365 -0.29722,-0.0927 -2.41572,-0.81264 -4.70779,-1.59986 -8.8983,-3.05616 -16.09642,-4.19557 -26.39261,-4.17778 -10.26539,0.0177 -17.27744,1.13847 -26.08,4.16837 -2.288,0.78754 -4.41343,1.51241 -4.72319,1.61082 -0.5248,0.16672 -0.54905,-0.10176 -0.35583,-3.93924 0.6629,-13.16563 -4.22699,-24.43815 -10.60098,-24.43815 -7.16246,0 -12.36078,14.27409 -10.25527,28.15999 0.45802,3.02065 1.47723,6.78903 2.25026,8.32 1.00915,1.99864 1.01164,1.99335 -2.14775,4.56403 -3.67744,2.99219 -9.97831,9.418 -12.78252,13.03597 -8.35301,10.77702 -13.9847,23.5277 -16.22962,36.74538 -4.718341,27.7807 5.12388,56.08397 26.06807,74.96397 1.06874,0.96339 1.88474,1.92691 1.81334,2.14115 -0.19946,0.59837 -0.76038,0.46675 -1.659,-0.38922 -0.44963,-0.42829 -2.18551,-1.26819 -3.85751,-1.86643 -13.02617,-4.66083 -28.736801,-13.25469 -40.800001,-22.31798 -21.52265,-16.17037 -38.72814,-37.03341 -50.25885,-60.94297 -8.56001,-17.74965 -13.59931,-35.67935 -15.83315,-56.3339 -0.5659,-5.23244 -0.76185,-21.17431 -0.3327,-27.06671 2.63294,-36.15089 15.55024,-68.164424 38.78929,-96.133284 3.54053,-4.26112 12.62144,-13.49653 17.42256,-17.71896 35.674661,-31.37473 83.109021,-45.94412969 130.372861,-40.0438497 31.88975,3.98103 61.30585,16.8203697 86.4,37.7112797 4.84077,4.02994 16.32505,15.5303 20.34304,20.37153 23.13254,27.87204 36.12822,60.385294 38.56345,96.480004 0.46234,6.85284 0.20602,20.68489 -0.50406,27.19999 -3.39386,31.13977 -14.10717,58.51712 -32.4952,83.04 -4.82464,6.43431 -7.95962,10.05043 -14.38365,16.59139 -10.69107,10.8856 -21.37321,19.28714 -34.24358,26.93268 -7.45635,4.42937 -19.70531,10.25334 -26.23782,12.4752 -1.2545,0.42668 -2.88609,1.28553 -3.6835,1.93894 -1.15627,0.94749 -1.46804,1.07763 -1.62176,0.67706 z m -73.89693,-75.73527 -20.79815,-20.8 h 41.91816 41.91815 l -20.79815,20.8 c -11.43899,11.44 -20.94299,20.8 -21.12,20.8 -0.17702,0 -9.68102,-9.36 -21.12001,-20.8 z M 2.5621986,100.58941 C 1.4486286,95.606556 0.45711856,87.248476 0.13243856,80.107536 -1.4885914,44.454056 11.817549,18.412786 37.503799,6.9685263 c 11.39681,-5.07774 24.51737,-7.34132999 40.04232,-6.90819999 6.53758,0.18239 12.46569,0.68184 18.03948,1.51982999 l 2.51948,0.37879 -6.03948,1.98564 c -28.3218,9.3115697 -52.74517,27.4496297 -69.59495,51.6848197 -8.32709,11.97691 -14.9790204,26.57738 -18.2203204,39.99212 -0.53261,2.20433 -1.08206,4.439884 -1.22099,4.967884 l -0.2526,0.96 z M 361.40494,96.992666 C 354.86968,69.358676 337.67269,43.480046 313.75186,25.282646 301.0149,15.593186 287.99429,8.7643863 272.76744,3.7878963 l -5.57866,-1.82324 2.53866,-0.38165 c 5.50627,-0.82776999 11.47984,-1.33745999 17.89869,-1.52718999 24.76989,-0.73218 44.59933,5.74811999 57.84381,18.90347969 10.13897,10.07072 16.12092,22.87481 18.85123,40.35011 0.94457,6.04568 1.16237,19.4379 0.43974,27.04 -0.46851,4.92882 -1.90038,14.632254 -2.20397,14.935854 -0.0609,0.0609 -0.57926,-1.870804 -1.152,-4.292594 z M 265.96613,1.9708063 c 0.231,-0.0924 0.507,-0.0811 0.61334,0.0252 0.10634,0.10633 -0.0827,0.18196 -0.42,0.16807 -0.3728,-0.0154 -0.44861,-0.0912 -0.19334,-0.19333 z"
     style="fill:#000000;stroke-width:0.31999999" />
</svg>
